<svg width="159" height="47" viewBox="0 0 159 47" fill="none" xmlns="http://www.w3.org/2000/svg">
<path d="M8.424 20.496C9.08 20.496 9.632 20.4 10.08 20.208C10.544 20.016 10.936 19.8 11.256 19.56C11.576 19.32 11.856 19.104 12.096 18.912C12.352 18.72 12.608 18.624 12.864 18.624C13.184 18.624 13.344 18.864 13.344 19.344C13.344 19.6 13.312 19.912 13.248 20.28C13.184 20.632 13.096 21.032 12.984 21.48C12.92 21.752 12.76 22.048 12.504 22.368C12.264 22.688 11.928 22.992 11.496 23.28C11.064 23.552 10.528 23.784 9.888 23.976C9.264 24.152 8.544 24.24 7.728 24.24C6.912 24.24 6.096 24.12 5.28 23.88C4.464 23.64 3.736 23.232 3.096 22.656C2.456 22.08 1.936 21.304 1.536 20.328C1.136 19.352 0.936 18.128 0.936 16.656C0.936 16.128 0.968 15.52 1.032 14.832C1.112 14.128 1.256 13.408 1.464 12.672C1.672 11.936 1.96 11.216 2.328 10.512C2.712 9.792 3.2 9.152 3.792 8.592C4.384 8.032 5.104 7.584 5.952 7.248C6.816 6.896 7.84 6.72 9.024 6.72C9.968 6.72 10.784 6.832 11.472 7.056C12.176 7.28 12.752 7.592 13.2 7.992C13.664 8.376 14 8.832 14.208 9.36C14.432 9.888 14.544 10.448 14.544 11.04C14.544 12.064 14.24 12.816 13.632 13.296C13.04 13.76 12.192 13.992 11.088 13.992C10.736 13.992 10.512 13.968 10.416 13.92C10.336 13.856 10.296 13.736 10.296 13.56C10.28 13.016 10.264 12.544 10.248 12.144C10.232 11.744 10.176 11.416 10.08 11.16C9.984 10.888 9.832 10.696 9.624 10.584C9.432 10.456 9.16 10.392 8.808 10.392C8.296 10.392 7.856 10.504 7.488 10.728C7.136 10.936 6.832 11.216 6.576 11.568C6.336 11.904 6.136 12.288 5.976 12.72C5.832 13.152 5.712 13.592 5.616 14.04C5.536 14.488 5.48 14.92 5.448 15.336C5.432 15.752 5.424 16.112 5.424 16.416C5.424 17.888 5.664 18.936 6.144 19.56C6.64 20.184 7.4 20.496 8.424 20.496ZM21.0084 24.24C19.9044 24.24 18.9844 24.088 18.2484 23.784C17.5284 23.464 16.9524 23.032 16.5204 22.488C16.0884 21.944 15.7844 21.312 15.6084 20.592C15.4324 19.856 15.3444 19.072 15.3444 18.24C15.3444 17.28 15.4564 16.344 15.6804 15.432C15.9204 14.504 16.3204 13.68 16.8804 12.96C17.4404 12.24 18.1764 11.664 19.0884 11.232C20.0164 10.784 21.1684 10.56 22.5444 10.56C24.5604 10.56 26.0004 11.056 26.8644 12.048C27.7444 13.024 28.1844 14.4 28.1844 16.176C28.1844 16.672 28.1444 17.224 28.0644 17.832C28.0004 18.424 27.8644 19.016 27.6564 19.608C27.4644 20.2 27.1924 20.776 26.8404 21.336C26.5044 21.896 26.0724 22.392 25.5444 22.824C25.0164 23.256 24.3764 23.6 23.6244 23.856C22.8884 24.112 22.0164 24.24 21.0084 24.24ZM22.1364 13.752C21.5284 13.752 21.0404 13.912 20.6724 14.232C20.3204 14.536 20.0484 14.912 19.8564 15.36C19.6804 15.792 19.5604 16.256 19.4964 16.752C19.4484 17.232 19.4244 17.64 19.4244 17.976C19.4244 19.032 19.5924 19.808 19.9284 20.304C20.2644 20.8 20.7444 21.048 21.3684 21.048C21.9284 21.048 22.3844 20.872 22.7364 20.52C23.1044 20.168 23.3844 19.744 23.5764 19.248C23.7844 18.752 23.9204 18.232 23.9844 17.688C24.0644 17.144 24.1044 16.688 24.1044 16.32C24.1044 15.52 23.9524 14.896 23.6484 14.448C23.3604 13.984 22.8564 13.752 22.1364 13.752ZM38.1602 21.888C38.1602 21.536 38.1842 21.08 38.2322 20.52C38.2962 19.944 38.3522 19.344 38.4002 18.72C38.4642 18.08 38.5202 17.464 38.5682 16.872C38.6322 16.28 38.6642 15.784 38.6642 15.384C38.6642 14.968 38.5602 14.6 38.3522 14.28C38.1602 13.944 37.7762 13.776 37.2002 13.776C36.6402 13.776 36.1762 13.912 35.8082 14.184C35.4402 14.456 35.1282 14.952 34.8722 15.672C34.6322 16.392 34.4322 17.384 34.2722 18.648C34.1122 19.912 33.9602 21.536 33.8162 23.52C33.8002 23.712 33.7602 23.84 33.6962 23.904C33.6322 23.968 33.4962 24 33.2882 24H32.4242C31.9282 24 31.5202 23.952 31.2002 23.856C30.8962 23.744 30.6482 23.592 30.4562 23.4C30.2802 23.208 30.1522 22.976 30.0722 22.704C30.0082 22.416 29.9762 22.088 29.9762 21.72C29.9762 21.48 29.9842 21.144 30.0002 20.712C30.0322 20.264 30.0802 19.656 30.1442 18.888C30.2082 18.104 30.2802 17.12 30.3602 15.936C30.4562 14.736 30.5682 13.256 30.6962 11.496C30.7122 11.144 30.7522 10.936 30.8162 10.872C30.8642 10.824 30.9922 10.8 31.2002 10.8H32.1362C32.6162 10.8 33.0082 10.856 33.3122 10.968C33.6322 11.08 33.8882 11.232 34.0802 11.424C34.2722 11.6 34.4082 11.816 34.4882 12.072C34.5682 12.312 34.6162 12.56 34.6322 12.816C35.1282 11.968 35.6962 11.384 36.3362 11.064C36.9762 10.728 37.7762 10.56 38.7362 10.56C39.4082 10.56 39.9922 10.632 40.4882 10.776C40.9842 10.92 41.3922 11.168 41.7122 11.52C42.0482 11.856 42.2962 12.304 42.4562 12.864C42.6162 13.408 42.6962 14.088 42.6962 14.904C42.6962 15.16 42.6802 15.528 42.6482 16.008C42.6162 16.488 42.5762 17.016 42.5282 17.592C42.4802 18.152 42.4242 18.744 42.3602 19.368C42.3122 19.976 42.2642 20.544 42.2162 21.072C42.1682 21.6 42.1282 22.064 42.0962 22.464C42.0642 22.864 42.0482 23.128 42.0482 23.256C42.0482 23.608 42.0082 23.824 41.9282 23.904C41.8482 23.968 41.6722 24 41.4002 24H40.6322C40.1202 24 39.7042 23.952 39.3842 23.856C39.0642 23.76 38.8162 23.624 38.6402 23.448C38.4642 23.272 38.3362 23.056 38.2562 22.8C38.1922 22.528 38.1602 22.224 38.1602 21.888ZM49.9956 14.04C49.9476 14.648 49.8916 15.248 49.8276 15.84C49.7796 16.432 49.7316 16.992 49.6836 17.52C49.6356 18.048 49.5956 18.52 49.5636 18.936C49.5476 19.352 49.5396 19.672 49.5396 19.896C49.5396 20.312 49.5876 20.592 49.6836 20.736C49.7796 20.864 49.9396 20.928 50.1636 20.928C50.3396 20.928 50.4916 20.896 50.6196 20.832C50.7476 20.768 50.8676 20.696 50.9796 20.616C51.0916 20.536 51.1876 20.464 51.2676 20.4C51.3636 20.336 51.4676 20.304 51.5796 20.304C51.6916 20.304 51.7956 20.368 51.8916 20.496C51.9876 20.624 52.0356 20.92 52.0356 21.384C52.0356 22.264 51.7956 22.96 51.3156 23.472C50.8356 23.984 50.0116 24.24 48.8436 24.24C47.6916 24.24 46.8356 23.976 46.2756 23.448C45.7316 22.904 45.4596 22.08 45.4596 20.976C45.4596 20.736 45.4676 20.456 45.4836 20.136C45.5156 19.8 45.5556 19.368 45.6036 18.84C45.6516 18.312 45.7076 17.664 45.7716 16.896C45.8516 16.128 45.9316 15.176 46.0116 14.04H44.7396C44.6116 14.04 44.5316 14.016 44.4996 13.968C44.4836 13.904 44.4756 13.816 44.4756 13.704L44.5476 12.48C44.5636 12.272 44.5876 12.072 44.6196 11.88C44.6676 11.672 44.7476 11.488 44.8596 11.328C44.9876 11.168 45.1636 11.04 45.3876 10.944C45.6116 10.848 45.9076 10.8 46.2756 10.8C46.3876 10.512 46.5156 10.168 46.6596 9.768C46.8036 9.368 46.9476 8.984 47.0916 8.616C47.2356 8.232 47.3716 7.912 47.4996 7.656C47.6436 7.4 47.7716 7.272 47.8836 7.272H48.5796C49.2516 7.272 49.7156 7.48 49.9716 7.896C50.2276 8.312 50.3556 8.808 50.3556 9.384C50.3556 9.704 50.3316 10.176 50.2836 10.8H52.8036C53.0596 10.8 53.1876 10.912 53.1876 11.136L53.0916 12.432C53.0596 12.912 52.9236 13.304 52.6836 13.608C52.4596 13.896 51.9876 14.04 51.2676 14.04H49.9956ZM53.7015 21.048C53.7015 19.608 54.3495 18.48 55.6455 17.664C56.9415 16.848 58.8535 16.408 61.3815 16.344C61.3975 16.168 61.4055 16.024 61.4055 15.912C61.4215 15.784 61.4295 15.632 61.4295 15.456C61.4295 14.944 61.3335 14.536 61.1415 14.232C60.9495 13.928 60.5495 13.776 59.9415 13.776C59.6055 13.776 59.3335 13.824 59.1255 13.92C58.9175 14.016 58.7495 14.152 58.6215 14.328C58.4935 14.488 58.3895 14.688 58.3095 14.928C58.2295 15.168 58.1575 15.432 58.0935 15.72C58.0615 15.864 57.9895 15.96 57.8775 16.008C57.7655 16.04 57.5895 16.056 57.3495 16.056C55.7175 16.056 54.9015 15.44 54.9015 14.208C54.9015 13.712 55.0135 13.24 55.2375 12.792C55.4775 12.344 55.8215 11.96 56.2695 11.64C56.7335 11.304 57.3095 11.04 57.9975 10.848C58.6855 10.656 59.4855 10.56 60.3975 10.56C62.1735 10.56 63.4615 10.928 64.2615 11.664C65.0615 12.4 65.4615 13.44 65.4615 14.784C65.4615 14.96 65.4375 15.28 65.3895 15.744C65.3575 16.192 65.3095 16.672 65.2455 17.184C65.1975 17.68 65.1495 18.152 65.1015 18.6C65.0695 19.048 65.0535 19.36 65.0535 19.536C65.0535 19.936 65.1255 20.224 65.2695 20.4C65.4135 20.56 65.5735 20.672 65.7495 20.736C65.9415 20.8 66.1095 20.848 66.2535 20.88C66.3975 20.912 66.4695 20.992 66.4695 21.12C66.4695 21.472 66.4215 21.832 66.3255 22.2C66.2295 22.568 66.0695 22.904 65.8455 23.208C65.6375 23.512 65.3415 23.76 64.9575 23.952C64.5895 24.144 64.1335 24.24 63.5895 24.24C62.8215 24.24 62.2455 24.056 61.8615 23.688C61.4775 23.32 61.2215 22.808 61.0935 22.152C60.7095 22.712 60.2055 23.2 59.5815 23.616C58.9735 24.032 58.1735 24.24 57.1815 24.24C56.7015 24.24 56.2455 24.184 55.8135 24.072C55.3975 23.96 55.0295 23.776 54.7095 23.52C54.4055 23.264 54.1575 22.936 53.9655 22.536C53.7895 22.12 53.7015 21.624 53.7015 21.048ZM61.1655 18.312C60.7495 18.312 60.3415 18.344 59.9415 18.408C59.5415 18.472 59.1815 18.576 58.8615 18.72C58.5575 18.848 58.3095 19.024 58.1175 19.248C57.9255 19.472 57.8295 19.744 57.8295 20.064C57.8295 20.432 57.9415 20.688 58.1655 20.832C58.4055 20.976 58.6615 21.048 58.9335 21.048C59.1895 21.048 59.4455 20.992 59.7015 20.88C59.9575 20.768 60.1815 20.6 60.3735 20.376C60.5815 20.136 60.7575 19.848 60.9015 19.512C61.0455 19.176 61.1335 18.776 61.1655 18.312ZM80.1428 20.496C80.7988 20.496 81.3508 20.4 81.7988 20.208C82.2628 20.016 82.6548 19.8 82.9748 19.56C83.2948 19.32 83.5748 19.104 83.8148 18.912C84.0708 18.72 84.3268 18.624 84.5828 18.624C84.9028 18.624 85.0628 18.864 85.0628 19.344C85.0628 19.6 85.0308 19.912 84.9668 20.28C84.9028 20.632 84.8148 21.032 84.7028 21.48C84.6388 21.752 84.4788 22.048 84.2228 22.368C83.9828 22.688 83.6468 22.992 83.2148 23.28C82.7828 23.552 82.2468 23.784 81.6068 23.976C80.9828 24.152 80.2628 24.24 79.4468 24.24C78.6308 24.24 77.8148 24.12 76.9988 23.88C76.1828 23.64 75.4548 23.232 74.8148 22.656C74.1748 22.08 73.6548 21.304 73.2548 20.328C72.8548 19.352 72.6548 18.128 72.6548 16.656C72.6548 16.128 72.6868 15.52 72.7508 14.832C72.8308 14.128 72.9748 13.408 73.1828 12.672C73.3908 11.936 73.6788 11.216 74.0468 10.512C74.4308 9.792 74.9188 9.152 75.5108 8.592C76.1028 8.032 76.8228 7.584 77.6708 7.248C78.5348 6.896 79.5588 6.72 80.7428 6.72C81.6868 6.72 82.5028 6.832 83.1908 7.056C83.8948 7.28 84.4708 7.592 84.9188 7.992C85.3828 8.376 85.7188 8.832 85.9268 9.36C86.1508 9.888 86.2628 10.448 86.2628 11.04C86.2628 12.064 85.9588 12.816 85.3508 13.296C84.7588 13.76 83.9108 13.992 82.8068 13.992C82.4548 13.992 82.2308 13.968 82.1348 13.92C82.0548 13.856 82.0148 13.736 82.0148 13.56C81.9988 13.016 81.9828 12.544 81.9668 12.144C81.9508 11.744 81.8948 11.416 81.7988 11.16C81.7028 10.888 81.5508 10.696 81.3428 10.584C81.1508 10.456 80.8788 10.392 80.5268 10.392C80.0148 10.392 79.5748 10.504 79.2068 10.728C78.8548 10.936 78.5508 11.216 78.2948 11.568C78.0548 11.904 77.8548 12.288 77.6948 12.72C77.5508 13.152 77.4308 13.592 77.3348 14.04C77.2548 14.488 77.1988 14.92 77.1668 15.336C77.1508 15.752 77.1428 16.112 77.1428 16.416C77.1428 17.888 77.3828 18.936 77.8628 19.56C78.3588 20.184 79.1188 20.496 80.1428 20.496ZM92.7272 24.24C91.6232 24.24 90.7032 24.088 89.9672 23.784C89.2472 23.464 88.6712 23.032 88.2392 22.488C87.8072 21.944 87.5032 21.312 87.3272 20.592C87.1512 19.856 87.0632 19.072 87.0632 18.24C87.0632 17.28 87.1752 16.344 87.3992 15.432C87.6392 14.504 88.0392 13.68 88.5992 12.96C89.1592 12.24 89.8952 11.664 90.8072 11.232C91.7352 10.784 92.8872 10.56 94.2632 10.56C96.2792 10.56 97.7192 11.056 98.5832 12.048C99.4632 13.024 99.9032 14.4 99.9032 16.176C99.9032 16.672 99.8632 17.224 99.7832 17.832C99.7192 18.424 99.5832 19.016 99.3752 19.608C99.1832 20.2 98.9112 20.776 98.5592 21.336C98.2232 21.896 97.7912 22.392 97.2632 22.824C96.7352 23.256 96.0952 23.6 95.3432 23.856C94.6072 24.112 93.7352 24.24 92.7272 24.24ZM93.8552 13.752C93.2472 13.752 92.7592 13.912 92.3912 14.232C92.0392 14.536 91.7672 14.912 91.5752 15.36C91.3992 15.792 91.2792 16.256 91.2152 16.752C91.1672 17.232 91.1432 17.64 91.1432 17.976C91.1432 19.032 91.3112 19.808 91.6472 20.304C91.9832 20.8 92.4632 21.048 93.0872 21.048C93.6472 21.048 94.1032 20.872 94.4552 20.52C94.8232 20.168 95.1032 19.744 95.2952 19.248C95.5032 18.752 95.6392 18.232 95.7032 17.688C95.7832 17.144 95.8232 16.688 95.8232 16.32C95.8232 15.52 95.6712 14.896 95.3672 14.448C95.0792 13.984 94.5752 13.752 93.8552 13.752ZM105.847 19.68C105.799 20.416 105.743 21.12 105.679 21.792C105.615 22.448 105.567 23.024 105.535 23.52C105.519 23.712 105.479 23.84 105.415 23.904C105.351 23.968 105.215 24 105.007 24H104.143C103.647 24 103.239 23.952 102.919 23.856C102.615 23.744 102.367 23.592 102.175 23.4C101.999 23.208 101.871 22.976 101.791 22.704C101.727 22.416 101.695 22.088 101.695 21.72C101.695 21.48 101.703 21.144 101.719 20.712C101.751 20.264 101.799 19.656 101.863 18.888C101.927 18.104 101.999 17.12 102.079 15.936C102.175 14.736 102.287 13.256 102.415 11.496C102.431 11.144 102.471 10.936 102.535 10.872C102.583 10.824 102.711 10.8 102.919 10.8H103.855C104.335 10.8 104.727 10.856 105.031 10.968C105.335 11.08 105.583 11.224 105.775 11.4C105.967 11.576 106.103 11.784 106.183 12.024C106.263 12.264 106.311 12.512 106.327 12.768C106.791 11.904 107.319 11.32 107.911 11.016C108.503 10.712 109.199 10.56 109.999 10.56C110.431 10.56 110.847 10.6 111.247 10.68C111.647 10.76 112.007 10.896 112.327 11.088C112.647 11.28 112.919 11.536 113.143 11.856C113.367 12.16 113.527 12.552 113.623 13.032C114.119 12.104 114.663 11.464 115.255 11.112C115.847 10.744 116.591 10.56 117.487 10.56C117.983 10.56 118.455 10.616 118.903 10.728C119.367 10.824 119.767 11 120.103 11.256C120.439 11.512 120.703 11.864 120.895 12.312C121.103 12.744 121.207 13.288 121.207 13.944C121.207 14.44 121.183 15.048 121.135 15.768C121.087 16.488 121.031 17.272 120.967 18.12C120.903 18.952 120.831 19.816 120.751 20.712C120.671 21.592 120.607 22.44 120.559 23.256C120.543 23.432 120.527 23.568 120.511 23.664C120.495 23.76 120.463 23.832 120.415 23.88C120.383 23.928 120.327 23.96 120.247 23.976C120.167 23.992 120.055 24 119.911 24H119.143C118.631 24 118.215 23.952 117.895 23.856C117.575 23.76 117.327 23.624 117.151 23.448C116.975 23.272 116.847 23.056 116.767 22.8C116.703 22.528 116.671 22.224 116.671 21.888C116.671 21.68 116.679 21.384 116.695 21C116.727 20.616 116.759 20.2 116.791 19.752C116.839 19.304 116.879 18.84 116.911 18.36C116.959 17.88 116.999 17.44 117.031 17.04C117.079 16.624 117.111 16.264 117.127 15.96C117.159 15.656 117.175 15.456 117.175 15.36C117.175 14.944 117.087 14.576 116.911 14.256C116.751 13.936 116.431 13.776 115.951 13.776C115.535 13.776 115.175 13.912 114.871 14.184C114.567 14.456 114.311 14.832 114.103 15.312C113.895 15.792 113.727 16.36 113.599 17.016C113.471 17.672 113.383 18.384 113.335 19.152C113.303 19.648 113.263 20.216 113.215 20.856C113.167 21.496 113.111 22.296 113.047 23.256C113.031 23.432 113.015 23.568 112.999 23.664C112.983 23.76 112.951 23.832 112.903 23.88C112.871 23.928 112.815 23.96 112.735 23.976C112.655 23.992 112.543 24 112.399 24H111.631C111.119 24 110.703 23.952 110.383 23.856C110.063 23.76 109.815 23.624 109.639 23.448C109.463 23.272 109.335 23.056 109.255 22.8C109.191 22.528 109.159 22.224 109.159 21.888C109.159 21.568 109.183 21.104 109.231 20.496C109.295 19.872 109.351 19.232 109.399 18.576C109.463 17.904 109.519 17.272 109.567 16.68C109.631 16.072 109.663 15.632 109.663 15.36C109.663 14.944 109.575 14.576 109.399 14.256C109.239 13.936 108.919 13.776 108.439 13.776C108.007 13.776 107.639 13.936 107.335 14.256C107.031 14.576 106.775 15.008 106.567 15.552C106.375 16.08 106.215 16.704 106.087 17.424C105.975 18.144 105.895 18.896 105.847 19.68ZM125.823 24C125.327 24 124.919 23.952 124.599 23.856C124.295 23.744 124.047 23.592 123.855 23.4C123.679 23.208 123.551 22.976 123.471 22.704C123.407 22.416 123.375 22.088 123.375 21.72C123.375 21.48 123.383 21.144 123.399 20.712C123.431 20.264 123.479 19.656 123.543 18.888C123.607 18.104 123.679 17.12 123.759 15.936C123.855 14.736 123.967 13.256 124.095 11.496C124.111 11.144 124.151 10.936 124.215 10.872C124.263 10.824 124.391 10.8 124.599 10.8H125.535C126.031 10.8 126.431 10.848 126.735 10.944C127.055 11.04 127.303 11.184 127.479 11.376C127.671 11.568 127.799 11.8 127.863 12.072C127.943 12.344 127.983 12.648 127.983 12.984C127.983 13.224 127.967 13.584 127.935 14.064C127.903 14.544 127.855 15.2 127.791 16.032C127.743 16.848 127.671 17.872 127.575 19.104C127.479 20.32 127.359 21.792 127.215 23.52C127.199 23.712 127.159 23.84 127.095 23.904C127.031 23.968 126.895 24 126.687 24H125.823ZM124.119 7.968C124.119 7.328 124.351 6.824 124.815 6.456C125.279 6.088 125.903 5.904 126.687 5.904C127.375 5.904 127.871 6.048 128.175 6.336C128.495 6.608 128.655 6.976 128.655 7.44C128.655 8.032 128.431 8.528 127.983 8.928C127.551 9.312 126.911 9.504 126.063 9.504C124.767 9.504 124.119 8.992 124.119 7.968ZM137.949 21.168C137.549 21.888 137.061 22.424 136.485 22.776C135.909 23.112 135.189 23.28 134.325 23.28C133.669 23.28 133.069 23.176 132.525 22.968C131.981 22.76 131.517 22.432 131.133 21.984C130.749 21.536 130.445 20.976 130.221 20.304C130.013 19.616 129.909 18.8 129.909 17.856C129.909 17.088 129.989 16.28 130.149 15.432C130.309 14.568 130.597 13.776 131.013 13.056C131.445 12.336 132.029 11.744 132.765 11.28C133.501 10.8 134.445 10.56 135.597 10.56C136.077 10.56 136.485 10.616 136.821 10.728C137.173 10.824 137.469 10.96 137.709 11.136C137.965 11.312 138.165 11.52 138.309 11.76C138.469 12 138.589 12.256 138.669 12.528C138.669 12.544 138.669 12.488 138.669 12.36C138.685 12.216 138.701 12.056 138.717 11.88C138.733 11.704 138.741 11.536 138.741 11.376C138.757 11.2 138.765 11.088 138.765 11.04C138.781 10.88 138.885 10.8 139.077 10.8H140.181C141.013 10.8 141.613 10.976 141.981 11.328C142.365 11.664 142.557 12.312 142.557 13.272C142.557 13.4 142.549 13.696 142.533 14.16C142.517 14.608 142.485 15.152 142.437 15.792C142.405 16.432 142.357 17.144 142.293 17.928C142.229 18.696 142.157 19.472 142.077 20.256C141.997 21.04 141.909 21.792 141.813 22.512C141.717 23.232 141.613 23.864 141.501 24.408C141.389 24.952 141.197 25.48 140.925 25.992C140.653 26.504 140.269 26.96 139.773 27.36C139.277 27.76 138.637 28.08 137.853 28.32C137.085 28.56 136.141 28.68 135.021 28.68C134.173 28.68 133.429 28.6 132.789 28.44C132.165 28.28 131.645 28.064 131.229 27.792C130.813 27.536 130.493 27.24 130.269 26.904C130.061 26.568 129.957 26.232 129.957 25.896C129.957 25.592 130.021 25.328 130.149 25.104C130.277 24.88 130.445 24.696 130.653 24.552C130.861 24.408 131.085 24.296 131.325 24.216C131.581 24.152 131.821 24.12 132.045 24.12C132.317 24.12 132.517 24.2 132.645 24.36C132.773 24.52 132.917 24.696 133.077 24.888C133.237 25.096 133.461 25.28 133.749 25.44C134.037 25.6 134.485 25.68 135.093 25.68C136.149 25.68 136.885 25.288 137.301 24.504C137.733 23.736 137.949 22.624 137.949 21.168ZM135.933 20.088C136.509 20.088 136.957 19.952 137.277 19.68C137.613 19.408 137.869 19.08 138.045 18.696C138.221 18.312 138.333 17.912 138.381 17.496C138.429 17.08 138.453 16.72 138.453 16.416C138.453 15.456 138.301 14.776 137.997 14.376C137.709 13.96 137.269 13.752 136.677 13.752C136.085 13.752 135.621 13.912 135.285 14.232C134.949 14.552 134.693 14.936 134.517 15.384C134.357 15.816 134.253 16.256 134.205 16.704C134.157 17.136 134.133 17.472 134.133 17.712C134.133 18.512 134.269 19.112 134.541 19.512C134.813 19.896 135.277 20.088 135.933 20.088ZM150.055 24.24C148.951 24.24 148.031 24.088 147.295 23.784C146.575 23.464 145.999 23.032 145.567 22.488C145.135 21.944 144.831 21.312 144.655 20.592C144.479 19.856 144.391 19.072 144.391 18.24C144.391 17.28 144.503 16.344 144.727 15.432C144.967 14.504 145.367 13.68 145.927 12.96C146.487 12.24 147.223 11.664 148.135 11.232C149.063 10.784 150.215 10.56 151.591 10.56C153.607 10.56 155.047 11.056 155.911 12.048C156.791 13.024 157.231 14.4 157.231 16.176C157.231 16.672 157.191 17.224 157.111 17.832C157.047 18.424 156.911 19.016 156.703 19.608C156.511 20.2 156.239 20.776 155.887 21.336C155.551 21.896 155.119 22.392 154.591 22.824C154.063 23.256 153.423 23.6 152.671 23.856C151.935 24.112 151.063 24.24 150.055 24.24ZM151.183 13.752C150.575 13.752 150.087 13.912 149.719 14.232C149.367 14.536 149.095 14.912 148.903 15.36C148.727 15.792 148.607 16.256 148.543 16.752C148.495 17.232 148.471 17.64 148.471 17.976C148.471 19.032 148.639 19.808 148.975 20.304C149.311 20.8 149.791 21.048 150.415 21.048C150.975 21.048 151.431 20.872 151.783 20.52C152.151 20.168 152.431 19.744 152.623 19.248C152.831 18.752 152.967 18.232 153.031 17.688C153.111 17.144 153.151 16.688 153.151 16.32C153.151 15.52 152.999 14.896 152.695 14.448C152.407 13.984 151.903 13.752 151.183 13.752Z" fill="white"/>
<path d="M156.929 42.8286C157.458 42.8887 157.935 42.5088 157.995 41.98C158.055 41.4512 157.675 40.9738 157.147 40.9137L156.929 42.8286ZM13.8833 45.1348C10.5179 43.4845 8.19407 42.0544 6.75212 40.8334C5.25134 39.5626 4.95718 38.7342 5.00692 38.2906C5.05306 37.8792 5.4686 37.2686 6.94638 36.6211C8.35874 36.0023 10.4438 35.4869 13.1441 35.0827C23.949 33.4651 43.4953 33.7722 64.8484 34.9199C86.168 36.0657 109.187 38.0427 126.881 39.7338C135.727 40.5793 143.24 41.3531 148.541 41.9155C151.192 42.1967 153.289 42.425 154.724 42.5831C155.441 42.6621 155.993 42.7235 156.365 42.7652C156.551 42.786 156.692 42.8019 156.787 42.8125C156.834 42.8179 156.87 42.8219 156.893 42.8246C156.905 42.826 156.914 42.827 156.92 42.8276C156.923 42.828 156.925 42.8282 156.927 42.8284C156.928 42.8286 156.929 42.8286 157.038 41.8712C157.147 40.9137 157.146 40.9136 157.144 40.9134C157.143 40.9133 157.14 40.913 157.137 40.9126C157.131 40.912 157.122 40.9109 157.11 40.9096C157.086 40.9068 157.05 40.9028 157.003 40.8974C156.908 40.8867 156.766 40.8707 156.579 40.8498C156.206 40.8081 155.653 40.7465 154.935 40.6674C153.498 40.5091 151.398 40.2805 148.744 39.999C143.438 39.436 135.918 38.6615 127.065 37.8153C109.359 36.1231 86.3097 34.1433 64.9518 32.9954C43.6275 31.8493 23.8878 31.5255 12.8587 33.1766C10.1005 33.5896 7.81783 34.1351 6.17293 34.8558C4.59344 35.5479 3.26217 36.5554 3.09166 38.0758C2.92475 39.564 3.9441 40.9811 5.50669 42.3042C7.1281 43.6771 9.61752 45.1895 13.0348 46.8652L13.8833 45.1348Z" fill="#FFFFDF"/>
</svg>
